<svg width="25" height="25" viewBox="0 0 24 24" fill="black" xmlns="http://www.w3.org/2000/svg">
  <path d="M10.49 2C10.01 2 9.6 2.34 9.51 2.81L9.18 4.52C8.36 4.83 7.6 5.27 6.93 5.81L5.29 5.25C4.83 5.09 4.33 5.28 4.09 5.69L2.59 8.31C2.35 8.72 2.43 9.25 2.79 9.56L4.11 10.71C4.04 11.13 4 11.56 4 12C4 12.44 4.04 12.87 4.11 13.29L2.79 14.44C2.43 14.75 2.35 15.28 2.59 15.69L4.09 18.31C4.33 18.72 4.83 18.91 5.29 18.75L6.93 18.19C7.6 18.73 8.36 19.17 9.18 19.48L9.51 21.19C9.6 21.66 10.01 22 10.49 22H13.51C13.99 22 14.4 21.66 14.49 21.19L14.82 19.48C15.64 19.17 16.4 18.73 17.07 18.19L18.71 18.75C19.17 18.91 19.67 18.72 19.91 18.31L21.41 15.69C21.65 15.28 21.57 14.75 21.21 14.44L19.89 13.29C19.96 12.87 20 12.44 20 12C20 11.56 19.96 11.13 19.89 10.71L21.21 9.56C21.57 9.25 21.65 8.72 21.41 8.31L19.91 5.69C19.67 5.28 19.17 5.09 18.71 5.25L17.07 5.81C16.4 5.27 15.64 4.83 14.82 4.52L14.49 2.81C14.4 2.34 13.99 2 13.51 2H10.49ZM12 8C14.21 8 16 9.79 16 12C16 14.21 14.21 16 12 16C9.79 16 8 14.21 8 12C8 9.79 9.79 8 12 8Z"></path>
</svg>
